<svg width="16" height="16" viewBox="0 0 16 16" fill="none" xmlns="http://www.w3.org/2000/svg">
<path fill-rule="evenodd" clip-rule="evenodd" d="M10.8893 1.33334C13.1486 1.33334 14.6666 2.91868 14.6666 5.27734V10.7227C14.6666 13.0813 13.1486 14.6667 10.8886 14.6667H5.10992C2.85059 14.6667 1.33325 13.0813 1.33325 10.7227V5.27734C1.33325 2.91868 2.85059 1.33334 5.10992 1.33334H10.8893ZM10.8893 2.33334H5.10992C3.42325 2.33334 2.33325 3.48868 2.33325 5.27734V10.7227C2.33325 12.5113 3.42325 13.6667 5.10992 13.6667H10.8886C12.5759 13.6667 13.6666 12.5113 13.6666 10.7227V5.27734C13.6666 3.48868 12.5759 2.33334 10.8893 2.33334ZM6.75359 6.04174L7.99859 7.28668L9.24292 6.04314C9.43825 5.84781 9.75425 5.84781 9.94959 6.04314C10.1449 6.23848 10.1449 6.55448 9.94959 6.74981L8.70525 7.99334L9.95092 9.23974C10.1463 9.43508 10.1463 9.75108 9.95092 9.94641C9.85359 10.0444 9.72492 10.0931 9.59759 10.0931C9.46959 10.0931 9.34159 10.0444 9.24425 9.94641L7.99859 8.70001L6.75492 9.94448C6.65759 10.0425 6.52959 10.0911 6.40159 10.0911C6.27359 10.0911 6.14559 10.0425 6.04825 9.94448C5.85292 9.74914 5.85292 9.43314 6.04825 9.23781L7.29192 7.99334L6.04692 6.74841C5.85159 6.55308 5.85159 6.23708 6.04692 6.04174C6.24292 5.84641 6.55892 5.84641 6.75359 6.04174Z" fill="#F03D3E"/>
</svg>
