<svg width="40" height="40" viewBox="0 0 40 40" fill="none" xmlns="http://www.w3.org/2000/svg">
<path d="M12.9067 32.9305C12.4108 32.4393 12.3663 31.6684 12.7848 31.1305L12.9104 30.99L25.1204 19.029C25.667 18.4931 26.55 18.495 27.0929 19.0327C27.3624 19.2997 27.5 19.6508 27.5 20.0001C27.5 20.2943 27.4045 20.5872 27.2145 20.8312L27.0892 20.9713L14.8791 32.9323C14.3325 33.4682 13.4495 33.4663 12.9067 32.9305ZM12.9106 9.01174C12.3622 8.47587 12.3659 7.60714 12.9068 7.07128C13.4044 6.57839 14.1879 6.53578 14.736 6.94344L14.8793 7.06579L22.9883 15.0087C23.2616 15.2757 23.3992 15.6287 23.3992 15.9799C23.3992 16.3292 23.2616 16.6803 22.9921 16.9473C22.4945 17.4402 21.711 17.4828 21.1629 17.0752L21.0196 16.9528L12.9106 9.01174Z" fill="#296870"/>
</svg>
