<svg width="26" height="26" viewBox="0 0 26 26" fill="none" xmlns="http://www.w3.org/2000/svg">
<path fill-rule="evenodd" clip-rule="evenodd" d="M11.7053 16.0526L15.6671 22.48C15.8404 22.7617 16.1112 22.7585 16.2207 22.7433C16.3301 22.7281 16.5933 22.661 16.6887 22.3414L21.6427 5.60929C21.7294 5.31354 21.5702 5.11204 21.4987 5.04054C21.4293 4.96904 21.2311 4.81629 20.944 4.89754L4.19998 9.80071C3.88257 9.89388 3.81323 10.1604 3.79807 10.2698C3.7829 10.3814 3.77857 10.6576 4.05915 10.8342L10.5602 14.9L16.3041 9.09546C16.6193 8.77696 17.1339 8.77371 17.4535 9.08896C17.7731 9.40421 17.7752 9.91988 17.46 10.2384L11.7053 16.0526ZM16.1362 24.3748C15.3822 24.3748 14.691 23.9913 14.2837 23.3326L10.0836 16.5174L3.1979 12.2111C2.45582 11.7464 2.06798 10.9187 2.18823 10.0488C2.3074 9.17888 2.90432 8.48771 3.74282 8.24179L20.4868 3.33863C21.2571 3.11329 22.0826 3.32671 22.6502 3.89221C23.2179 4.46313 23.4292 5.29729 23.1995 6.07079L18.2454 22.8018C17.9973 23.6435 17.304 24.2383 16.4362 24.3542C16.3344 24.3672 16.2358 24.3748 16.1362 24.3748Z" fill="white"/>
</svg>
